<svg width="22" height="22" viewBox="0 0 22 22" fill="none" xmlns="http://www.w3.org/2000/svg">
<path fill-rule="evenodd" clip-rule="evenodd" d="M13.0347 2.03471C13.6674 1.40197 14.5607 1.14584 15.5833 1.14584H17.4167C18.4393 1.14584 19.3326 1.40197 19.9653 2.03471C20.5981 2.66745 20.8542 3.5607 20.8542 4.58334V6.41668C20.8542 7.43932 20.5981 8.33257 19.9653 8.96531C19.3326 9.59805 18.4393 9.85418 17.4167 9.85418H15.5833C14.5607 9.85418 13.6674 9.59805 13.0347 8.96531C12.402 8.33257 12.1458 7.43932 12.1458 6.41668V4.58334C12.1458 3.5607 12.402 2.66745 13.0347 2.03471ZM14.007 3.00698C13.7231 3.29091 13.5208 3.77265 13.5208 4.58334V6.41668C13.5208 7.22737 13.7231 7.70911 14.007 7.99304C14.2909 8.27697 14.7727 8.47918 15.5833 8.47918H17.4167C18.2274 8.47918 18.7091 8.27697 18.993 7.99304C19.277 7.70911 19.4792 7.22737 19.4792 6.41668V4.58334C19.4792 3.77265 19.277 3.29091 18.993 3.00698C18.7091 2.72305 18.2274 2.52084 17.4167 2.52084H15.5833C14.7727 2.52084 14.2909 2.72305 14.007 3.00698Z" fill="#28F3A1"/>
<path fill-rule="evenodd" clip-rule="evenodd" d="M2.03471 13.0347C2.66745 12.402 3.5607 12.1458 4.58334 12.1458H6.41668C7.43932 12.1458 8.33257 12.402 8.96531 13.0347C9.59805 13.6674 9.85418 14.5607 9.85418 15.5833V17.4167C9.85418 18.4393 9.59805 19.3326 8.96531 19.9653C8.33257 20.5981 7.43932 20.8542 6.41668 20.8542H4.58334C3.5607 20.8542 2.66745 20.5981 2.03471 19.9653C1.40197 19.3326 1.14584 18.4393 1.14584 17.4167V15.5833C1.14584 14.5607 1.40197 13.6674 2.03471 13.0347ZM3.00698 14.007C2.72305 14.2909 2.52084 14.7727 2.52084 15.5833V17.4167C2.52084 18.2274 2.72305 18.7091 3.00698 18.993C3.29091 19.277 3.77265 19.4792 4.58334 19.4792H6.41668C7.22737 19.4792 7.70911 19.277 7.99304 18.993C8.27697 18.7091 8.47918 18.2274 8.47918 17.4167V15.5833C8.47918 14.7727 8.27697 14.2909 7.99304 14.007C7.70911 13.7231 7.22737 13.5208 6.41668 13.5208H4.58334C3.77265 13.5208 3.29091 13.7231 3.00698 14.007Z" fill="#28F3A1"/>
<path fill-rule="evenodd" clip-rule="evenodd" d="M5.50001 2.52084C3.85466 2.52084 2.52084 3.85466 2.52084 5.50001C2.52084 7.14536 3.85466 8.47918 5.50001 8.47918C7.14536 8.47918 8.47918 7.14536 8.47918 5.50001C8.47918 3.85466 7.14536 2.52084 5.50001 2.52084ZM1.14584 5.50001C1.14584 3.09527 3.09527 1.14584 5.50001 1.14584C7.90475 1.14584 9.85418 3.09527 9.85418 5.50001C9.85418 7.90475 7.90475 9.85418 5.50001 9.85418C3.09527 9.85418 1.14584 7.90475 1.14584 5.50001Z" fill="#28F3A1"/>
<path fill-rule="evenodd" clip-rule="evenodd" d="M16.5 13.5208C14.8547 13.5208 13.5208 14.8547 13.5208 16.5C13.5208 18.1454 14.8547 19.4792 16.5 19.4792C18.1454 19.4792 19.4792 18.1454 19.4792 16.5C19.4792 14.8547 18.1454 13.5208 16.5 13.5208ZM12.1458 16.5C12.1458 14.0953 14.0953 12.1458 16.5 12.1458C18.9047 12.1458 20.8542 14.0953 20.8542 16.5C20.8542 18.9047 18.9047 20.8542 16.5 20.8542C14.0953 20.8542 12.1458 18.9047 12.1458 16.5Z" fill="#28F3A1"/>
</svg>
