<svg width="22" height="22" viewBox="0 0 22 22" fill="none" xmlns="http://www.w3.org/2000/svg">
<path fill-rule="evenodd" clip-rule="evenodd" d="M10.8075 3.15791C10.4665 3.15791 10.1635 3.21753 9.97013 3.30413L9.9682 3.305L4.55834 5.70734C3.84824 6.02062 3.79959 6.30405 3.79959 6.33416C3.79959 6.36427 3.84824 6.64771 4.55834 6.96099L4.55986 6.96166L9.97013 9.36419C10.1635 9.45079 10.4665 9.51041 10.8075 9.51041C11.1485 9.51041 11.4515 9.45079 11.6449 9.36419L11.6468 9.36333L17.0552 6.96166L17.0567 6.96099C17.7668 6.64771 17.8154 6.36427 17.8154 6.33416C17.8154 6.30405 17.7668 6.02062 17.0567 5.70734L11.6468 3.305L11.6449 3.30413C11.4515 3.21753 11.1485 3.15791 10.8075 3.15791ZM12.2058 2.04873C11.7852 1.86067 11.2774 1.78291 10.8075 1.78291C10.3376 1.78291 9.8298 1.86067 9.40924 2.04873C9.4089 2.04889 9.40856 2.04904 9.40822 2.04919L4.00334 4.44932C4.0031 4.44943 4.00358 4.44922 4.00334 4.44932C3.15542 4.82358 2.42459 5.45244 2.42459 6.33416C2.42459 7.21585 3.15464 7.84438 4.00252 8.21864C4.00225 8.21852 4.00279 8.21876 4.00252 8.21864L9.40822 10.6191C9.40861 10.6193 9.409 10.6195 9.40939 10.6197C9.82992 10.8077 10.3377 10.8854 10.8075 10.8854C11.2774 10.8854 11.7851 10.8077 12.2057 10.6196C12.2061 10.6195 12.2064 10.6193 12.2068 10.6191L17.6117 8.219C17.6114 8.21911 17.6119 8.2189 17.6117 8.219C18.4596 7.84474 19.1904 7.21589 19.1904 6.33416C19.1904 5.45241 18.4603 4.82386 17.6123 4.4496C17.6121 4.44951 17.6125 4.4497 17.6123 4.4496L12.2068 2.04919C12.2065 2.04904 12.2061 2.04889 12.2058 2.04873Z" fill="#fafafa"/>
<path fill-rule="evenodd" clip-rule="evenodd" d="M2.75 9.39583C3.1297 9.39583 3.4375 9.70363 3.4375 10.0833C3.4375 10.3064 3.52576 10.5929 3.70324 10.8657C3.88071 11.1384 4.10673 11.335 4.31104 11.4252L4.31273 11.426L10.5356 14.1938C10.5354 14.1937 10.5358 14.1939 10.5356 14.1938C10.8367 14.3267 11.174 14.3247 11.4599 14.1958L11.4631 14.1943L17.6873 11.426L17.689 11.4252C17.8933 11.335 18.1193 11.1384 18.2968 10.8657C18.4742 10.5929 18.5625 10.3064 18.5625 10.0833C18.5625 9.70363 18.8703 9.39583 19.25 9.39583C19.6297 9.39583 19.9375 9.70363 19.9375 10.0833C19.9375 10.6302 19.737 11.1733 19.4493 11.6156C19.1617 12.0576 18.7463 12.4612 18.2451 12.6827C18.2449 12.6828 18.2454 12.6826 18.2451 12.6827L12.0251 15.4492C12.0245 15.4495 12.0239 15.4498 12.0233 15.45C11.3748 15.7419 10.6308 15.7394 9.9794 15.4512L3.75563 12.6831C3.75532 12.6829 3.755 12.6828 3.75469 12.6827C3.25359 12.4611 2.83827 12.0575 2.55072 11.6156C2.26299 11.1733 2.0625 10.6302 2.0625 10.0833C2.0625 9.70363 2.3703 9.39583 2.75 9.39583Z" fill="#fafafa"/>
<path fill-rule="evenodd" clip-rule="evenodd" d="M2.75 13.9792C3.1297 13.9792 3.4375 14.287 3.4375 14.6667C3.4375 15.2449 3.77937 15.7706 4.31341 16.0096C4.31324 16.0095 4.31358 16.0097 4.31341 16.0096L10.5356 18.7771C10.5354 18.777 10.5358 18.7772 10.5356 18.7771C10.8367 18.91 11.174 18.908 11.4599 18.7791L11.4631 18.7776L17.6861 16.0099C17.6859 16.0099 17.6863 16.0098 17.6861 16.0099C18.2201 15.7709 18.5625 15.2449 18.5625 14.6667C18.5625 14.287 18.8703 13.9792 19.25 13.9792C19.6297 13.9792 19.9375 14.287 19.9375 14.6667C19.9375 15.7933 19.2713 16.8073 18.2473 17.2651L18.2461 17.2657L12.0251 20.0325C12.0245 20.0328 12.0239 20.0331 12.0233 20.0334C11.3748 20.3252 10.6308 20.3227 9.9794 20.0346L3.75274 17.2651C2.72874 16.8073 2.0625 15.7933 2.0625 14.6667C2.0625 14.287 2.3703 13.9792 2.75 13.9792Z" fill="#F1F1F1"/>
</svg>
